<svg width="260" height="103" viewBox="0 0 260 103" fill="none" xmlns="http://www.w3.org/2000/svg">
<g clip-path="url(#clip0_1_9)">
<path d="M17.3164 44.5332C12.7292 44.5332 9.06445 43.4837 6.32227 41.3848C3.59701 39.2858 2.17513 36.1966 2.05664 32.1172H9.80078C9.9362 34.013 10.681 35.4434 12.0352 36.4082C13.4062 37.3561 15.1328 37.8301 17.2148 37.8301C19.2461 37.8301 20.8711 37.3984 22.0898 36.5352C23.3255 35.6719 23.9434 34.5462 23.9434 33.1582C23.9434 31.8887 23.3848 30.9154 22.2676 30.2383C21.1504 29.5443 19.5592 28.9518 17.4941 28.4609L13.3555 27.4453C10.1732 26.6836 7.65951 25.4733 5.81445 23.8145C3.98633 22.1387 3.07227 19.9043 3.07227 17.1113C3.07227 14.8262 3.6901 12.8288 4.92578 11.1191C6.16146 9.39258 7.85417 8.05534 10.0039 7.10742C12.1706 6.14258 14.6335 5.66016 17.3926 5.66016C20.2025 5.66016 22.6569 6.14258 24.7559 7.10742C26.8548 8.07227 28.4883 9.40951 29.6562 11.1191C30.8411 12.8288 31.4505 14.8008 31.4844 17.0352H23.7656C23.6302 15.5625 23.0039 14.4115 21.8867 13.582C20.7695 12.7526 19.2546 12.3379 17.3418 12.3379C15.3952 12.3379 13.8971 12.7441 12.8477 13.5566C11.7982 14.3522 11.2734 15.3678 11.2734 16.6035C11.2734 17.9408 11.8574 18.9564 13.0254 19.6504C14.1934 20.3275 15.5983 20.8607 17.2402 21.25L20.6172 22.0879C22.8177 22.5788 24.7728 23.2982 26.4824 24.2461C28.1921 25.1771 29.5378 26.3789 30.5195 27.8516C31.5013 29.3073 31.9922 31.0846 31.9922 33.1836C31.9922 36.6536 30.6973 39.4128 28.1074 41.4609C25.5176 43.5091 21.9206 44.5332 17.3164 44.5332ZM35.9277 12.7695V6.16797H66.9805V12.7695H55.4531V44H47.4805V12.7695H35.9277ZM69.9004 6.16797H78.8887L87.4961 22.4688H87.877L96.5098 6.16797H105.473L91.6602 30.6445V44H83.7129V30.6445L69.9004 6.16797ZM109.84 44V6.16797H117.812V37.3984H134.037V44H109.84ZM139.395 44V6.16797H164.887V12.7695H147.367V21.6562H163.541V28.1309H147.367V37.3984H164.938V44H139.395ZM20.2363 98.5078C16.8678 98.5078 13.8548 97.7461 11.1973 96.2227C8.53971 94.6992 6.44076 92.4902 4.90039 89.5957C3.37695 86.7012 2.61523 83.2057 2.61523 79.1094C2.61523 74.9792 3.38542 71.4668 4.92578 68.5723C6.48307 65.6777 8.59049 63.4688 11.248 61.9453C13.9225 60.4219 16.9186 59.6602 20.2363 59.6602C23.1647 59.6602 25.7969 60.2018 28.1328 61.2852C30.4857 62.3685 32.4069 63.9342 33.8965 65.9824C35.3861 68.0306 36.3001 70.5104 36.6387 73.4219H28.5645C28.2598 71.3398 27.3711 69.7064 25.8984 68.5215C24.4258 67.3197 22.5977 66.7188 20.4141 66.7188C17.5026 66.7188 15.1582 67.8021 13.3809 69.9688C11.6035 72.1185 10.7148 75.1654 10.7148 79.1094C10.7148 83.138 11.6035 86.2018 13.3809 88.3008C15.1751 90.3997 17.5111 91.4492 20.3887 91.4492C22.5046 91.4492 24.2988 90.8906 25.7715 89.7734C27.2611 88.6562 28.1921 87.0905 28.5645 85.0762H36.6387C36.3509 87.3952 35.5215 89.5788 34.1504 91.627C32.7962 93.6751 30.9427 95.334 28.5898 96.6035C26.2539 97.873 23.4694 98.5078 20.2363 98.5078ZM42.4023 98V60.168H50.375V75.7832H66.5996V60.168H74.5977V98H66.5996V82.3594H50.375V98H42.4023ZM87.6992 98H79.1172L92.1934 60.168H102.477L115.527 98H106.971L104.152 89.3672H90.4922L87.6992 98ZM92.5234 83.1211H102.121L97.4746 68.8008H97.1699L92.5234 83.1211ZM151.684 60.168V98H144.752L128.324 74.209H128.02V98H120.047V60.168H127.055L143.381 83.959H143.711V60.168H151.684ZM175.449 98.5078C171.911 98.5078 168.797 97.7292 166.105 96.1719C163.431 94.5977 161.34 92.3633 159.834 89.4688C158.344 86.5573 157.6 83.1126 157.6 79.1348C157.6 75.0384 158.378 71.543 159.936 68.6484C161.493 65.737 163.609 63.5111 166.283 61.9707C168.958 60.4303 171.962 59.6602 175.297 59.6602C178.158 59.6602 180.739 60.2018 183.041 61.2852C185.36 62.3685 187.256 63.8665 188.729 65.7793C190.218 67.6921 191.132 69.901 191.471 72.4062H183.371C182.846 70.6289 181.907 69.2409 180.553 68.2422C179.199 67.2266 177.489 66.7188 175.424 66.7188C172.529 66.7188 170.185 67.7936 168.391 69.9434C166.596 72.0762 165.699 75.1146 165.699 79.0586C165.699 83.0026 166.579 86.0579 168.34 88.2246C170.117 90.3743 172.512 91.4492 175.525 91.4492C178.166 91.4492 180.24 90.7637 181.746 89.3926C183.27 88.0046 184.057 86.1341 184.107 83.7812H176.008V77.7637H191.852V82.5371C191.852 85.8548 191.149 88.707 189.744 91.0938C188.339 93.4805 186.401 95.3171 183.93 96.6035C181.458 97.873 178.632 98.5078 175.449 98.5078ZM197.844 98V60.168H223.336V66.7695H205.816V75.6562H221.99V82.1309H205.816V91.3984H223.387V98H197.844ZM243.699 98.5332C239.112 98.5332 235.447 97.4837 232.705 95.3848C229.98 93.2858 228.558 90.1966 228.439 86.1172H236.184C236.319 88.013 237.064 89.4434 238.418 90.4082C239.789 91.3561 241.516 91.8301 243.598 91.8301C245.629 91.8301 247.254 91.3984 248.473 90.5352C249.708 89.6719 250.326 88.5462 250.326 87.1582C250.326 85.8887 249.768 84.9154 248.65 84.2383C247.533 83.5443 245.942 82.9518 243.877 82.4609L239.738 81.4453C236.556 80.6836 234.042 79.4733 232.197 77.8145C230.369 76.1387 229.455 73.9043 229.455 71.1113C229.455 68.8262 230.073 66.8288 231.309 65.1191C232.544 63.3926 234.237 62.0553 236.387 61.1074C238.553 60.1426 241.016 59.6602 243.775 59.6602C246.585 59.6602 249.04 60.1426 251.139 61.1074C253.238 62.0723 254.871 63.4095 256.039 65.1191C257.224 66.8288 257.833 68.8008 257.867 71.0352H250.148C250.013 69.5625 249.387 68.4115 248.27 67.582C247.152 66.7526 245.637 66.3379 243.725 66.3379C241.778 66.3379 240.28 66.7441 239.23 67.5566C238.181 68.3522 237.656 69.3678 237.656 70.6035C237.656 71.9408 238.24 72.9564 239.408 73.6504C240.576 74.3275 241.981 74.8607 243.623 75.25L247 76.0879C249.201 76.5788 251.156 77.2982 252.865 78.2461C254.575 79.1771 255.921 80.3789 256.902 81.8516C257.884 83.3073 258.375 85.0846 258.375 87.1836C258.375 90.6536 257.08 93.4128 254.49 95.4609C251.9 97.5091 248.303 98.5332 243.699 98.5332Z" fill="black"/>
</g>
<defs>
<clipPath id="clip0_1_9">
<rect width="260" height="103" fill="white"/>
</clipPath>
</defs>
</svg>
